<svg width="760" height="620" viewBox="0 0 760 620" xmlns="http://www.w3.org/2000/svg" role="img" aria-labelledby="title desc">
  <title id="title">SHEIN Material Viewer popup in filter mode</title>
  <desc id="desc">Mock screenshot showing optional filter controls, presets, display modes, and material rules.</desc>
  <rect width="760" height="620" fill="#eef2f7"/>
  <rect x="210" y="26" width="380" height="570" rx="14" fill="#f8fafc" stroke="#cbd5e1"/>
  <text x="230" y="62" font-family="Arial, sans-serif" font-size="22" font-weight="700" fill="#111827">Material Viewer</text>
  <rect x="530" y="42" width="44" height="24" rx="12" fill="#111827"/>
  <circle cx="559" cy="54" r="9" fill="#fff"/>
  <text x="230" y="84" font-family="Arial, sans-serif" font-size="13" fill="#64748b">1 pending</text>
  <text x="230" y="118" font-family="Arial, sans-serif" font-size="11" font-weight="700" fill="#475569">CARD BEHAVIOR</text>
  <rect x="230" y="128" width="340" height="34" rx="6" fill="#fff" stroke="#cbd5e1"/>
  <text x="244" y="150" font-family="Arial, sans-serif" font-size="13" fill="#111827">Filter by rules</text>
  <text x="230" y="191" font-family="Arial, sans-serif" font-size="11" font-weight="700" fill="#475569">PRESET</text>
  <rect x="230" y="201" width="340" height="34" rx="6" fill="#fff" stroke="#cbd5e1"/>
  <text x="244" y="223" font-family="Arial, sans-serif" font-size="13" fill="#111827">Rayon/Viscose &gt; 30%</text>
  <text x="230" y="264" font-family="Arial, sans-serif" font-size="11" font-weight="700" fill="#475569">MATCH</text>
  <rect x="230" y="274" width="160" height="34" rx="6" fill="#fff" stroke="#cbd5e1"/>
  <text x="244" y="296" font-family="Arial, sans-serif" font-size="13" fill="#111827">All rules</text>
  <text x="410" y="264" font-family="Arial, sans-serif" font-size="11" font-weight="700" fill="#475569">DISPLAY</text>
  <rect x="410" y="274" width="160" height="34" rx="6" fill="#fff" stroke="#cbd5e1"/>
  <text x="424" y="296" font-family="Arial, sans-serif" font-size="13" fill="#111827">Badge only</text>
  <text x="230" y="341" font-family="Arial, sans-serif" font-size="11" font-weight="700" fill="#475569">RULES</text>
  <rect x="534" y="326" width="36" height="30" rx="6" fill="#fff" stroke="#d1d5db"/>
  <text x="552" y="346" text-anchor="middle" font-family="Arial, sans-serif" font-size="13" fill="#111827">Add</text>
  <rect x="230" y="366" width="340" height="38" rx="7" fill="#fff" stroke="#e2e8f0"/>
  <rect x="240" y="374" width="145" height="22" rx="4" fill="#f8fafc" stroke="#cbd5e1"/>
  <text x="250" y="390" font-family="Arial, sans-serif" font-size="12" fill="#111827">Rayon / Viscose</text>
  <rect x="393" y="374" width="74" height="22" rx="4" fill="#f8fafc" stroke="#cbd5e1"/>
  <text x="427" y="390" text-anchor="middle" font-family="Arial, sans-serif" font-size="12" fill="#111827">&gt;</text>
  <rect x="475" y="374" width="50" height="22" rx="4" fill="#f8fafc" stroke="#cbd5e1"/>
  <text x="500" y="390" text-anchor="middle" font-family="Arial, sans-serif" font-size="12" fill="#111827">30</text>
  <rect x="533" y="374" width="28" height="22" rx="4" fill="#fff" stroke="#d1d5db"/>
  <text x="547" y="390" text-anchor="middle" font-family="Arial, sans-serif" font-size="12" fill="#111827">X</text>
  <rect x="230" y="430" width="340" height="56" rx="8" fill="#fff" stroke="#e2e8f0"/>
  <text x="265" y="454" text-anchor="middle" font-family="Arial, sans-serif" font-size="17" font-weight="700" fill="#111827">12</text>
  <text x="265" y="473" text-anchor="middle" font-family="Arial, sans-serif" font-size="10" fill="#64748b">cards</text>
  <text x="357" y="454" text-anchor="middle" font-family="Arial, sans-serif" font-size="17" font-weight="700" fill="#111827">6</text>
  <text x="357" y="473" text-anchor="middle" font-family="Arial, sans-serif" font-size="10" fill="#64748b">scanned</text>
  <text x="443" y="454" text-anchor="middle" font-family="Arial, sans-serif" font-size="17" font-weight="700" fill="#111827">4</text>
  <text x="443" y="473" text-anchor="middle" font-family="Arial, sans-serif" font-size="10" fill="#64748b">materials</text>
  <text x="528" y="454" text-anchor="middle" font-family="Arial, sans-serif" font-size="17" font-weight="700" fill="#111827">1</text>
  <text x="528" y="473" text-anchor="middle" font-family="Arial, sans-serif" font-size="9" fill="#64748b">unknown/errors</text>
  <rect x="230" y="514" width="160" height="34" rx="6" fill="#fff" stroke="#d1d5db"/>
  <text x="310" y="536" text-anchor="middle" font-family="Arial, sans-serif" font-size="13" fill="#111827">Matches CSV</text>
  <rect x="410" y="514" width="160" height="34" rx="6" fill="#fff" stroke="#d1d5db"/>
  <text x="490" y="536" text-anchor="middle" font-family="Arial, sans-serif" font-size="13" fill="#111827">Matches JSON</text>
</svg>
