<svg width="760" height="560" viewBox="0 0 760 560" xmlns="http://www.w3.org/2000/svg" role="img" aria-labelledby="title desc">
  <title id="title">SHEIN Material Viewer popup in viewer mode</title>
  <desc id="desc">Mock screenshot showing the extension popup with material-only card behavior, scan controls, counts, and export buttons.</desc>
  <rect width="760" height="560" fill="#eef2f7"/>
  <rect x="210" y="30" width="380" height="500" rx="14" fill="#f8fafc" stroke="#cbd5e1"/>
  <text x="230" y="68" font-family="Arial, sans-serif" font-size="22" font-weight="700" fill="#111827">Material Viewer</text>
  <text x="230" y="91" font-family="Arial, sans-serif" font-size="13" fill="#64748b">0 pending</text>
  <text x="230" y="126" font-family="Arial, sans-serif" font-size="11" font-weight="700" fill="#475569">CARD BEHAVIOR</text>
  <rect x="230" y="136" width="340" height="36" rx="6" fill="#fff" stroke="#cbd5e1"/>
  <text x="244" y="159" font-family="Arial, sans-serif" font-size="14" fill="#111827">Show materials only</text>
  <text x="230" y="203" font-family="Arial, sans-serif" font-size="11" font-weight="700" fill="#475569">AUTO SCAN</text>
  <text x="230" y="231" font-family="Arial, sans-serif" font-size="11" font-weight="700" fill="#475569">PRODUCT PAGES</text>
  <rect x="230" y="240" width="160" height="36" rx="6" fill="#fff" stroke="#cbd5e1"/>
  <text x="244" y="263" font-family="Arial, sans-serif" font-size="13" fill="#111827">Manual only</text>
  <text x="410" y="231" font-family="Arial, sans-serif" font-size="11" font-weight="700" fill="#475569">OTHER PAGES</text>
  <rect x="410" y="240" width="160" height="36" rx="6" fill="#fff" stroke="#cbd5e1"/>
  <text x="424" y="263" font-family="Arial, sans-serif" font-size="13" fill="#111827">Manual only</text>
  <text x="230" y="307" font-family="Arial, sans-serif" font-size="11" font-weight="700" fill="#475569">DELAY SECONDS</text>
  <rect x="230" y="316" width="160" height="36" rx="6" fill="#fff" stroke="#cbd5e1"/>
  <text x="244" y="339" font-family="Arial, sans-serif" font-size="13" fill="#111827">8</text>
  <text x="410" y="307" font-family="Arial, sans-serif" font-size="11" font-weight="700" fill="#475569">RANDOM +/- SEC</text>
  <rect x="410" y="316" width="160" height="36" rx="6" fill="#fff" stroke="#cbd5e1"/>
  <text x="424" y="339" font-family="Arial, sans-serif" font-size="13" fill="#111827">2</text>
  <rect x="230" y="382" width="340" height="62" rx="8" fill="#fff" stroke="#e2e8f0"/>
  <line x1="315" y1="382" x2="315" y2="444" stroke="#e2e8f0"/>
  <line x1="400" y1="382" x2="400" y2="444" stroke="#e2e8f0"/>
  <line x1="485" y1="382" x2="485" y2="444" stroke="#e2e8f0"/>
  <text x="265" y="407" text-anchor="middle" font-family="Arial, sans-serif" font-size="18" font-weight="700" fill="#111827">12</text>
  <text x="265" y="427" text-anchor="middle" font-family="Arial, sans-serif" font-size="11" fill="#64748b">cards</text>
  <text x="357" y="407" text-anchor="middle" font-family="Arial, sans-serif" font-size="18" font-weight="700" fill="#111827">6</text>
  <text x="357" y="427" text-anchor="middle" font-family="Arial, sans-serif" font-size="11" fill="#64748b">scanned</text>
  <text x="443" y="407" text-anchor="middle" font-family="Arial, sans-serif" font-size="18" font-weight="700" fill="#111827">5</text>
  <text x="443" y="427" text-anchor="middle" font-family="Arial, sans-serif" font-size="11" fill="#64748b">materials</text>
  <text x="528" y="407" text-anchor="middle" font-family="Arial, sans-serif" font-size="18" font-weight="700" fill="#111827">1</text>
  <text x="528" y="427" text-anchor="middle" font-family="Arial, sans-serif" font-size="10" fill="#64748b">unknown/errors</text>
  <rect x="230" y="464" width="160" height="36" rx="6" fill="#fff" stroke="#d1d5db"/>
  <text x="310" y="487" text-anchor="middle" font-family="Arial, sans-serif" font-size="13" fill="#111827">Scan visible details</text>
  <rect x="410" y="464" width="160" height="36" rx="6" fill="#fff" stroke="#d1d5db"/>
  <text x="490" y="487" text-anchor="middle" font-family="Arial, sans-serif" font-size="13" fill="#111827">Clear cache</text>
</svg>
